<?xml version="1.0" encoding="UTF-8" standalone="no"?>
<svg width="20px" height="20px" viewBox="0 0 20 20" version="1.1" xmlns="http://www.w3.org/2000/svg" xmlns:xlink="http://www.w3.org/1999/xlink">
    <!-- Generator: Sketch 3.8.2 (29753) - http://www.bohemiancoding.com/sketch -->
    <title>Group</title>
    <desc>Created with Sketch.</desc>
    <defs></defs>
    <g id="Page-1" stroke="none" stroke-width="1" fill="none" fill-rule="evenodd">
        <g id="Artboard-17" transform="translate(-39.000000, -25.000000)" fill="#FFFFFF">
            <g id="Group" transform="translate(39.000000, 25.000000)">
                <path d="M9.54545455,0.00426136364 C4.28181818,0.00426136364 0,4.28607955 0,9.54971591 C0,14.8119886 4.28181818,19.0951705 9.54545455,19.0951705 C14.8077273,19.0951705 19.0909091,14.8119886 19.0909091,9.54971591 C19.0909091,4.28607955 14.8077273,0.00426136364 9.54545455,0.00426136364 L9.54545455,0.00426136364 Z M9.54545455,1.36789773 C14.0631818,1.36789773 17.7272727,5.03335227 17.7272727,9.54971591 C17.7272727,11.3742614 17.1231818,13.0515341 16.1140909,14.4124432 C15.1213636,12.8538068 13.6036364,11.6660795 11.7995455,11.1274432 C12.855,10.4047159 13.5504545,9.19244318 13.5504545,7.81926136 C13.5504545,5.61017045 11.7545455,3.81289773 9.54409091,3.81289773 C7.335,3.81289773 5.53772727,5.61017045 5.53772727,7.81926136 C5.53772727,9.20471591 6.24545455,10.4265341 7.31727273,11.1451705 C5.51454545,11.7001705 3.99954545,12.9015341 3.02045455,14.4724432 C1.98545455,13.1019886 1.36363636,11.4001705 1.36363636,9.54971591 C1.36363636,5.03198864 5.02772727,1.36789773 9.54545455,1.36789773 L9.54545455,1.36789773 Z M6.90409091,7.81926136 C6.90409091,6.36289773 8.08909091,5.17653409 9.54681818,5.17653409 C11.0045455,5.17653409 12.1895455,6.36153409 12.1895455,7.81926136 C12.1895455,9.27698864 11.0018182,10.4619886 9.54545455,10.4619886 C8.08909091,10.4619886 6.90409091,9.27698864 6.90409091,7.81926136 L6.90409091,7.81926136 Z M3.98454545,15.5388068 C5.06181818,13.5369886 7.16045455,12.1651705 9.58772727,12.1651705 C11.9945455,12.1651705 14.0781818,13.5110795 15.1677273,15.4828977 C13.7004545,16.8738068 11.7259091,17.7315341 9.54545455,17.7315341 C7.395,17.7315341 5.445,16.895625 3.98454545,15.5388068 L3.98454545,15.5388068 Z" id="Shape"></path>
            </g>
        </g>
    </g>
</svg>