<?xml version="1.0" encoding="UTF-8" standalone="no"?>
<svg width="24px" height="17px" viewBox="0 0 24 17" version="1.1" xmlns="http://www.w3.org/2000/svg" xmlns:xlink="http://www.w3.org/1999/xlink" xmlns:sketch="http://www.bohemiancoding.com/sketch/ns">
    <!-- Generator: Sketch 3.5.1 (25234) - http://www.bohemiancoding.com/sketch -->
    <title>Group</title>
    <desc>Created with Sketch.</desc>
    <defs></defs>
    <g id="home" stroke="none" stroke-width="1" fill="none" fill-rule="evenodd" sketch:type="MSPage">
        <g id="资料准备页" sketch:type="MSArtboardGroup" transform="translate(-917.000000, -1416.000000)">
            <rect id="Rectangle-81" fill="#F5F7F9" sketch:type="MSShapeGroup" x="0" y="1315" width="1440" height="276"></rect>
            <g id="Group" sketch:type="MSLayerGroup" transform="translate(917.000000, 1416.000000)">
                <rect id="Rectangle-113" fill-opacity="0.08" fill="#000000" sketch:type="MSShapeGroup" x="0" y="0" width="24" height="17" rx="2"></rect>
                <g id="iconfont-svg34" transform="translate(7.000000, 4.000000)" fill="#272636" sketch:type="MSShapeGroup">
                    <g id="图形">
                        <path d="M9.9689083,8.65056769 C10.0115284,8.82034934 10.0027948,8.98104803 9.94235808,9.13336245 C9.88227074,9.28532751 9.78864629,9.41982533 9.66148472,9.53650655 C9.53432314,9.65318777 9.37886463,9.74541485 9.19475983,9.81248908 C9.01065502,9.87956332 8.81292576,9.91344978 8.60087336,9.91344978 C7.26462882,9.92043668 6.06951965,9.92393013 5.0158952,9.92393013 L1.40960699,9.92393013 C1.1549345,9.92393013 0.930655022,9.87816594 0.736419214,9.78628821 C0.542183406,9.69441048 0.386375546,9.58122271 0.269694323,9.44672489 C0.1530131,9.31222707 0.0751091703,9.16550218 0.0363318777,9.00655022 C-0.00244541485,8.84759825 0.00279475983,8.70436681 0.0524017467,8.5768559 C0.0950218341,8.47764192 0.137292576,8.37528384 0.179563319,8.26943231 C0.214847162,8.17755459 0.257467249,8.07310044 0.306724891,7.95641921 C0.356331878,7.83973799 0.409432314,7.72131004 0.466026201,7.60113537 L0.869170306,6.62541485 L2.07860262,6.62541485 L1.62235808,7.96200873 L8.45275109,7.96200873 L7.99650655,6.62541485 L9.15248908,6.62541485 C9.3009607,6.98628821 9.43545852,7.31117904 9.55563319,7.60113537 C9.60524017,7.72864629 9.65484716,7.85231441 9.70445415,7.97248908 C9.75406114,8.09266376 9.7980786,8.20026201 9.83720524,8.29598253 C9.87598253,8.39135371 9.90777293,8.47275109 9.93257642,8.54017467 C9.95737991,8.60724891 9.96960699,8.64462882 9.96960699,8.65161572 L9.9689083,8.65056769 L9.9689083,8.65056769 Z M4.63371179,6.68829694 C4.49921397,6.53248908 4.34550218,6.33825328 4.17257642,6.10489083 C3.99965066,5.87152838 3.82113537,5.63117904 3.63703057,5.38384279 C3.45292576,5.13615721 3.27091703,4.89231441 3.09100437,4.65196507 C2.91074236,4.41161572 2.75004367,4.20305677 2.60820961,4.02593886 C2.44541485,3.83484716 2.38183406,3.67764192 2.4171179,3.5539738 C2.45240175,3.43030568 2.57257642,3.36847162 2.77799127,3.36847162 C2.89117904,3.37545852 3.0431441,3.37371179 3.23423581,3.3628821 C3.42532751,3.3520524 3.58427948,3.34681223 3.71144105,3.34681223 C3.85292576,3.34681223 3.94131004,3.30454148 3.97659389,3.21965066 C4.01187773,3.13475983 4.02969432,3.02157205 4.02969432,2.88043668 C4.02969432,2.72462882 4.0279476,2.55310044 4.0241048,2.36585153 C4.02061135,2.17860262 4.01851528,1.98576419 4.01851528,1.78803493 C4.01851528,1.58995633 4.01676856,1.39537118 4.01292576,1.20462882 C4.00943231,1.01353712 4.00733624,0.836768559 4.00733624,0.674323144 C4.00733624,0.603406114 4.01257642,0.529344978 4.02340611,0.451790393 C4.03388646,0.374235808 4.05868996,0.303668122 4.09781659,0.239737991 C4.13659389,0.17580786 4.19318777,0.123056769 4.26759825,0.0804366812 C4.34165939,0.0381659389 4.44262009,0.0168558952 4.570131,0.0165065502 C4.71860262,0.0165065502 4.85484716,0.0147598253 4.97851528,0.0109170306 C5.10218341,0.00742358079 5.24541485,0.00532751092 5.40820961,0.00532751092 C5.64157205,0.00532751092 5.79877729,0.0601746725 5.88017467,0.169519651 C5.96157205,0.279213974 6.00593886,0.453886463 6.01292576,0.694585153 L6.01292576,1.10820961 C6.01292576,1.27100437 6.01467249,1.44427948 6.01851528,1.62803493 C6.02200873,1.81179039 6.02375546,1.99554585 6.02375546,2.17965066 L6.02375546,2.67816594 C6.02375546,2.88323144 6.0450655,3.04742358 6.08768559,3.17144105 C6.13030568,3.29510917 6.22567686,3.35344978 6.37414847,3.34646288 C6.48034934,3.34646288 6.60925764,3.34995633 6.76122271,3.35694323 C6.91318777,3.36393013 7.04593886,3.36742358 7.15912664,3.36742358 C7.35021834,3.36742358 7.47213974,3.41877729 7.52489083,3.52113537 C7.57764192,3.62349345 7.54061135,3.75624454 7.41344978,3.9190393 C7.27895197,4.08882096 7.12349345,4.29388646 6.94672489,4.53423581 C6.76995633,4.7749345 6.5879476,5.02401747 6.40069869,5.28183406 C6.21344978,5.53965066 6.02934498,5.79082969 5.84908297,6.03502183 C5.66882096,6.27921397 5.50777293,6.48951965 5.36663755,6.66593886 C5.23912664,6.82873362 5.11720524,6.91152838 5.00087336,6.91502183 C4.88419214,6.91851528 4.76227074,6.84235808 4.63510917,6.68689956 L4.63371179,6.68829694 L4.63371179,6.68829694 Z" id="Shape"></path>
                    </g>
                </g>
            </g>
        </g>
    </g>
</svg>